<?xml version="1.0" standalone="no"?>
<!DOCTYPE svg PUBLIC "-//W3C//DTD SVG 20010904//EN" "http://www.w3.org/TR/2001/REC-SVG-20010904/DTD/svg10.dtd">
<svg xmlns="http://www.w3.org/2000/svg" version="1.0" width="1000" height="1000" viewBox="0 0 1000.000000 1000.000000" preserveAspectRatio="xMidYMid meet">

<g transform="translate(0.000000,1000.000000) scale(0.100000,-0.100000)" fill="#000000" stroke="none">
<path d="M5760 5215 l0 -685 305 0 305 0 0 685 0 685 -305 0 -305 0 0 -685z"/>
<path d="M6510 5215 l0 -685 305 0 305 0 0 220 0 220 385 0 385 0 0 165 0 165 -385 0 -385 0 0 90 0 90 445 0 445 0 2 199 3 199 116 -161 c63 -89 208 -292 322 -450 l207 -288 0 -225 0 -224 300 0 300 0 0 226 0 225 320 455 c176 249 320 456 320 459 0 3 -141 5 -313 5 l-313 0 -154 -265 c-85 -145 -157 -265 -160 -265 -3 0 -79 120 -170 265 l-165 265 -1057 0 -1058 0 0 -685z"/>
<path d="M260 5210 l0 -680 513 0 c281 0 564 5 627 10 499 41 750 311 709 759 -29 315 -233 514 -588 575 -80 13 -187 16 -678 16 l-583 0 0 -680z m1048 279 c76 -16 151 -66 187 -123 28 -46 30 -55 30 -150 0 -92 -2 -105 -28 -148 -35 -61 -81 -95 -158 -119 -52 -16 -93 -19 -280 -19 l-219 0 0 285 0 285 210 0 c115 0 231 -5 258 -11z"/>
<path d="M2230 5210 l0 -680 1044 0 1044 0 193 220 c106 121 196 220 200 220 4 0 93 -99 199 -220 l192 -220 304 0 305 0 -336 361 -336 361 188 181 c103 100 251 243 328 319 l140 138 -300 0 -299 0 -191 -190 c-105 -104 -195 -190 -201 -190 -5 0 -92 86 -192 190 l-184 190 -296 0 -297 0 320 -320 c252 -252 318 -323 310 -335 -19 -28 -630 -694 -637 -694 -5 -1 -8 78 -8 174 l0 175 -455 0 -456 0 3 93 3 92 408 3 407 2 0 145 0 145 -410 0 -410 0 0 85 0 85 445 0 445 0 0 175 0 175 -735 0 -735 0 0 -680z"/>
</g>
</svg>